<svg width="48" height="9" viewBox="0 0 48 9" fill="none" xmlns="http://www.w3.org/2000/svg">
<path d="M0.722656 8V0.890625H2.82227C3.45052 0.890625 4.00716 1.0306 4.49219 1.31055C4.98047 1.59049 5.35807 1.98763 5.625 2.50195C5.89193 3.01628 6.02539 3.60547 6.02539 4.26953V4.62598C6.02539 5.2998 5.8903 5.89225 5.62012 6.40332C5.35319 6.91439 4.9707 7.30827 4.47266 7.58496C3.97786 7.86165 3.40983 8 2.76855 8H0.722656ZM1.95801 1.88672V7.01367H2.76367C3.41146 7.01367 3.90788 6.81185 4.25293 6.4082C4.60124 6.0013 4.77865 5.41862 4.78516 4.66016V4.26465C4.78516 3.49316 4.61751 2.90397 4.28223 2.49707C3.94694 2.09017 3.46029 1.88672 2.82227 1.88672H1.95801ZM13.482 6.24219L14.5758 0.890625H15.8014L14.1607 8H12.9791L11.6266 2.80957L10.2447 8H9.0582L7.41758 0.890625H8.64316L9.74668 6.23242L11.1041 0.890625H12.1393L13.482 6.24219ZM18.6584 8H17.4279V0.890625H18.6584V8ZM20.827 8V0.890625H22.9266C23.5548 0.890625 24.1115 1.0306 24.5965 1.31055C25.0848 1.59049 25.4624 1.98763 25.7293 2.50195C25.9962 3.01628 26.1297 3.60547 26.1297 4.26953V4.62598C26.1297 5.2998 25.9946 5.89225 25.7244 6.40332C25.4575 6.91439 25.075 7.30827 24.577 7.58496C24.0822 7.86165 23.5141 8 22.8729 8H20.827ZM22.0623 1.88672V7.01367H22.868C23.5158 7.01367 24.0122 6.81185 24.3572 6.4082C24.7055 6.0013 24.8829 5.41862 24.8895 4.66016V4.26465C24.8895 3.49316 24.7218 2.90397 24.3865 2.49707C24.0512 2.09017 23.5646 1.88672 22.9266 1.88672H22.0623ZM31.8822 6.34473H29.1283L28.5521 8H27.268L29.9535 0.890625H31.0619L33.7523 8H32.4633L31.8822 6.34473ZM29.475 5.34863H31.5355L30.5053 2.39941L29.475 5.34863ZM38.9287 6.16895C38.9287 5.85645 38.818 5.61556 38.5967 5.44629C38.3786 5.27702 37.9831 5.10612 37.4102 4.93359C36.8372 4.76107 36.3815 4.56901 36.043 4.35742C35.3952 3.95052 35.0713 3.41992 35.0713 2.76562C35.0713 2.19271 35.304 1.7207 35.7695 1.34961C36.2383 0.978516 36.8454 0.792969 37.5908 0.792969C38.0856 0.792969 38.5267 0.884115 38.9141 1.06641C39.3014 1.2487 39.6058 1.50911 39.8271 1.84766C40.0485 2.18294 40.1592 2.55566 40.1592 2.96582H38.9287C38.9287 2.59473 38.8115 2.30501 38.5771 2.09668C38.346 1.88509 38.014 1.7793 37.5811 1.7793C37.1774 1.7793 36.8633 1.86556 36.6387 2.03809C36.4173 2.21061 36.3066 2.4515 36.3066 2.76074C36.3066 3.02116 36.4271 3.23926 36.668 3.41504C36.9089 3.58757 37.306 3.75684 37.8594 3.92285C38.4128 4.08561 38.8571 4.27279 39.1924 4.48438C39.5277 4.69271 39.7734 4.93359 39.9297 5.20703C40.0859 5.47721 40.1641 5.7946 40.1641 6.15918C40.1641 6.75163 39.9362 7.22363 39.4805 7.5752C39.028 7.9235 38.4128 8.09766 37.6348 8.09766C37.1204 8.09766 36.6468 8.00326 36.2139 7.81445C35.7842 7.6224 35.4489 7.35872 35.208 7.02344C34.9704 6.68815 34.8516 6.29753 34.8516 5.85156H36.0869C36.0869 6.25521 36.2204 6.56771 36.4873 6.78906C36.7542 7.01042 37.1367 7.12109 37.6348 7.12109C38.0645 7.12109 38.3867 7.03483 38.6016 6.8623C38.8197 6.68652 38.9287 6.4554 38.9287 6.16895ZM45.8775 6.34473H43.1236L42.5475 8H41.2633L43.9488 0.890625H45.0572L47.7477 8H46.4586L45.8775 6.34473ZM43.4703 5.34863H45.5309L44.5006 2.39941L43.4703 5.34863Z" fill="black" fill-opacity="0.6"/>
</svg>
