<svg width="1440" height="105" viewBox="0 0 1440 105" fill="none" xmlns="http://www.w3.org/2000/svg">
<g filter="url(#filter0_d_1_5)">
<rect width="1440" height="100" fill="white"/>
<path d="M390.256 51.2959C388.809 50.8799 387.754 50.3701 387.092 49.7666C386.436 49.1572 386.107 48.4072 386.107 47.5166C386.107 46.5088 386.509 45.6768 387.312 45.0205C388.12 44.3584 389.169 44.0273 390.458 44.0273C391.337 44.0273 392.119 44.1973 392.805 44.5371C393.496 44.877 394.029 45.3457 394.404 45.9434C394.785 46.541 394.976 47.1943 394.976 47.9033H393.279C393.279 47.1299 393.033 46.5234 392.541 46.084C392.049 45.6387 391.354 45.416 390.458 45.416C389.626 45.416 388.976 45.6006 388.507 45.9697C388.044 46.333 387.812 46.8398 387.812 47.4902C387.812 48.0117 388.032 48.4541 388.472 48.8174C388.917 49.1748 389.67 49.5029 390.73 49.8018C391.797 50.1006 392.629 50.4316 393.227 50.7949C393.83 51.1523 394.275 51.5713 394.562 52.0518C394.855 52.5322 395.002 53.0977 395.002 53.748C395.002 54.7852 394.598 55.6172 393.789 56.2441C392.98 56.8652 391.899 57.1758 390.546 57.1758C389.667 57.1758 388.847 57.0088 388.085 56.6748C387.323 56.335 386.734 55.8721 386.318 55.2861C385.908 54.7002 385.703 54.0352 385.703 53.291H387.399C387.399 54.0645 387.684 54.6768 388.252 55.1279C388.826 55.5732 389.591 55.7959 390.546 55.7959C391.437 55.7959 392.119 55.6143 392.594 55.251C393.068 54.8877 393.306 54.3926 393.306 53.7656C393.306 53.1387 393.086 52.6553 392.646 52.3154C392.207 51.9697 391.41 51.6299 390.256 51.2959ZM400.864 57.1758C399.575 57.1758 398.526 56.7539 397.718 55.9102C396.909 55.0605 396.505 53.9268 396.505 52.5088V52.21C396.505 51.2666 396.684 50.4258 397.041 49.6875C397.404 48.9434 397.908 48.3633 398.553 47.9473C399.203 47.5254 399.906 47.3145 400.662 47.3145C401.898 47.3145 402.859 47.7217 403.545 48.5361C404.23 49.3506 404.573 50.5166 404.573 52.0342V52.7109H398.131C398.154 53.6484 398.427 54.4072 398.948 54.9873C399.476 55.5615 400.144 55.8486 400.952 55.8486C401.526 55.8486 402.013 55.7314 402.411 55.4971C402.81 55.2627 403.158 54.9521 403.457 54.5654L404.45 55.3389C403.653 56.5635 402.458 57.1758 400.864 57.1758ZM400.662 48.6504C400.006 48.6504 399.455 48.8906 399.01 49.3711C398.564 49.8457 398.289 50.5137 398.184 51.375H402.947V51.252C402.9 50.4258 402.678 49.7871 402.279 49.3359C401.881 48.8789 401.342 48.6504 400.662 48.6504ZM411.06 48.9492C410.813 48.9082 410.547 48.8877 410.26 48.8877C409.193 48.8877 408.47 49.3418 408.089 50.25V57H406.463V47.4902H408.045L408.071 48.5889C408.604 47.7393 409.36 47.3145 410.339 47.3145C410.655 47.3145 410.896 47.3555 411.06 47.4375V48.9492ZM415.858 54.7939L418.214 47.4902H419.875L416.465 57H415.226L411.78 47.4902H413.441L415.858 54.7939ZM423.206 57H421.58V47.4902H423.206V57ZM421.448 44.9678C421.448 44.7041 421.527 44.4814 421.686 44.2998C421.85 44.1182 422.09 44.0273 422.406 44.0273C422.723 44.0273 422.963 44.1182 423.127 44.2998C423.291 44.4814 423.373 44.7041 423.373 44.9678C423.373 45.2314 423.291 45.4512 423.127 45.627C422.963 45.8027 422.723 45.8906 422.406 45.8906C422.09 45.8906 421.85 45.8027 421.686 45.627C421.527 45.4512 421.448 45.2314 421.448 44.9678ZM429.631 55.8486C430.211 55.8486 430.718 55.6729 431.151 55.3213C431.585 54.9697 431.825 54.5303 431.872 54.0029H433.41C433.381 54.5479 433.193 55.0664 432.848 55.5586C432.502 56.0508 432.039 56.4434 431.459 56.7363C430.885 57.0293 430.275 57.1758 429.631 57.1758C428.336 57.1758 427.305 56.7451 426.537 55.8838C425.775 55.0166 425.395 53.833 425.395 52.333V52.0605C425.395 51.1348 425.564 50.3115 425.904 49.5908C426.244 48.8701 426.73 48.3105 427.363 47.9121C428.002 47.5137 428.755 47.3145 429.622 47.3145C430.688 47.3145 431.573 47.6338 432.276 48.2725C432.985 48.9111 433.363 49.7402 433.41 50.7598H431.872C431.825 50.1445 431.591 49.6406 431.169 49.248C430.753 48.8496 430.237 48.6504 429.622 48.6504C428.796 48.6504 428.154 48.9492 427.697 49.5469C427.246 50.1387 427.021 50.9971 427.021 52.1221V52.4297C427.021 53.5254 427.246 54.3691 427.697 54.9609C428.148 55.5527 428.793 55.8486 429.631 55.8486ZM439.185 57.1758C437.896 57.1758 436.847 56.7539 436.038 55.9102C435.229 55.0605 434.825 53.9268 434.825 52.5088V52.21C434.825 51.2666 435.004 50.4258 435.361 49.6875C435.725 48.9434 436.229 48.3633 436.873 47.9473C437.523 47.5254 438.227 47.3145 438.982 47.3145C440.219 47.3145 441.18 47.7217 441.865 48.5361C442.551 49.3506 442.894 50.5166 442.894 52.0342V52.7109H436.451C436.475 53.6484 436.747 54.4072 437.269 54.9873C437.796 55.5615 438.464 55.8486 439.272 55.8486C439.847 55.8486 440.333 55.7314 440.731 55.4971C441.13 55.2627 441.479 54.9521 441.777 54.5654L442.771 55.3389C441.974 56.5635 440.778 57.1758 439.185 57.1758ZM438.982 48.6504C438.326 48.6504 437.775 48.8906 437.33 49.3711C436.885 49.8457 436.609 50.5137 436.504 51.375H441.268V51.252C441.221 50.4258 440.998 49.7871 440.6 49.3359C440.201 48.8789 439.662 48.6504 438.982 48.6504ZM450.32 54.4775C450.32 54.0381 450.153 53.6982 449.819 53.458C449.491 53.2119 448.914 53.001 448.088 52.8252C447.268 52.6494 446.614 52.4385 446.128 52.1924C445.647 51.9463 445.29 51.6533 445.056 51.3135C444.827 50.9736 444.713 50.5693 444.713 50.1006C444.713 49.3213 445.041 48.6621 445.697 48.123C446.359 47.584 447.203 47.3145 448.229 47.3145C449.307 47.3145 450.18 47.5928 450.848 48.1494C451.521 48.7061 451.858 49.418 451.858 50.2852H450.224C450.224 49.8398 450.033 49.4561 449.652 49.1338C449.277 48.8115 448.803 48.6504 448.229 48.6504C447.637 48.6504 447.174 48.7793 446.84 49.0371C446.506 49.2949 446.339 49.6318 446.339 50.0479C446.339 50.4404 446.494 50.7363 446.805 50.9355C447.115 51.1348 447.675 51.3252 448.483 51.5068C449.298 51.6885 449.957 51.9053 450.461 52.1572C450.965 52.4092 451.337 52.7139 451.577 53.0713C451.823 53.4229 451.946 53.8535 451.946 54.3633C451.946 55.2129 451.606 55.8955 450.927 56.4111C450.247 56.9209 449.365 57.1758 448.281 57.1758C447.52 57.1758 446.846 57.041 446.26 56.7715C445.674 56.502 445.214 56.127 444.88 55.6465C444.552 55.1602 444.388 54.6357 444.388 54.0732H446.014C446.043 54.6182 446.26 55.0518 446.664 55.374C447.074 55.6904 447.613 55.8486 448.281 55.8486C448.896 55.8486 449.389 55.7256 449.758 55.4795C450.133 55.2275 450.32 54.8936 450.32 54.4775Z" fill="#1F2E35" fill-opacity="0.8"/>
<path d="M506.173 51.9902V57H504.485V44.2031H509.205C510.605 44.2031 511.701 44.5605 512.492 45.2754C513.289 45.9902 513.688 46.9365 513.688 48.1143C513.688 49.3564 513.298 50.3145 512.519 50.9883C511.745 51.6562 510.635 51.9902 509.188 51.9902H506.173ZM506.173 50.6104H509.205C510.107 50.6104 510.799 50.3994 511.279 49.9775C511.76 49.5498 512 48.9346 512 48.1318C512 47.3701 511.76 46.7607 511.279 46.3037C510.799 45.8467 510.14 45.6094 509.302 45.5918H506.173V50.6104ZM520.183 48.9492C519.937 48.9082 519.67 48.8877 519.383 48.8877C518.316 48.8877 517.593 49.3418 517.212 50.25V57H515.586V47.4902H517.168L517.194 48.5889C517.728 47.7393 518.483 47.3145 519.462 47.3145C519.778 47.3145 520.019 47.3555 520.183 47.4375V48.9492ZM521.079 52.1572C521.079 51.2256 521.261 50.3877 521.624 49.6436C521.993 48.8994 522.503 48.3252 523.153 47.9209C523.81 47.5166 524.557 47.3145 525.395 47.3145C526.689 47.3145 527.735 47.7627 528.532 48.6592C529.335 49.5557 529.736 50.748 529.736 52.2363V52.3506C529.736 53.2764 529.558 54.1084 529.2 54.8467C528.849 55.5791 528.342 56.1504 527.68 56.5605C527.023 56.9707 526.268 57.1758 525.412 57.1758C524.123 57.1758 523.077 56.7275 522.274 55.8311C521.478 54.9346 521.079 53.748 521.079 52.2715V52.1572ZM522.714 52.3506C522.714 53.4053 522.957 54.252 523.443 54.8906C523.936 55.5293 524.592 55.8486 525.412 55.8486C526.238 55.8486 526.895 55.5264 527.381 54.8818C527.867 54.2314 528.11 53.3232 528.11 52.1572C528.11 51.1143 527.861 50.2705 527.363 49.626C526.871 48.9756 526.215 48.6504 525.395 48.6504C524.592 48.6504 523.944 48.9697 523.452 49.6084C522.96 50.2471 522.714 51.1611 522.714 52.3506ZM531.38 52.166C531.38 50.707 531.726 49.5352 532.417 48.6504C533.108 47.7598 534.014 47.3145 535.133 47.3145C536.246 47.3145 537.128 47.6953 537.778 48.457V43.5H539.404V57H537.91L537.831 55.9805C537.181 56.7773 536.275 57.1758 535.115 57.1758C534.014 57.1758 533.114 56.7246 532.417 55.8223C531.726 54.9199 531.38 53.7422 531.38 52.2891V52.166ZM533.006 52.3506C533.006 53.4287 533.229 54.2725 533.674 54.8818C534.119 55.4912 534.734 55.7959 535.52 55.7959C536.551 55.7959 537.304 55.333 537.778 54.4072V50.0391C537.292 49.1426 536.545 48.6943 535.537 48.6943C534.74 48.6943 534.119 49.002 533.674 49.6172C533.229 50.2324 533.006 51.1436 533.006 52.3506ZM547.807 56.0596C547.174 56.8037 546.245 57.1758 545.021 57.1758C544.007 57.1758 543.233 56.8828 542.7 56.2969C542.173 55.7051 541.906 54.832 541.9 53.6777V47.4902H543.526V53.6338C543.526 55.0752 544.112 55.7959 545.284 55.7959C546.526 55.7959 547.353 55.333 547.763 54.4072V47.4902H549.389V57H547.842L547.807 56.0596ZM555.682 55.8486C556.262 55.8486 556.769 55.6729 557.202 55.3213C557.636 54.9697 557.876 54.5303 557.923 54.0029H559.461C559.432 54.5479 559.244 55.0664 558.898 55.5586C558.553 56.0508 558.09 56.4434 557.51 56.7363C556.936 57.0293 556.326 57.1758 555.682 57.1758C554.387 57.1758 553.355 56.7451 552.588 55.8838C551.826 55.0166 551.445 53.833 551.445 52.333V52.0605C551.445 51.1348 551.615 50.3115 551.955 49.5908C552.295 48.8701 552.781 48.3105 553.414 47.9121C554.053 47.5137 554.806 47.3145 555.673 47.3145C556.739 47.3145 557.624 47.6338 558.327 48.2725C559.036 48.9111 559.414 49.7402 559.461 50.7598H557.923C557.876 50.1445 557.642 49.6406 557.22 49.248C556.804 48.8496 556.288 48.6504 555.673 48.6504C554.847 48.6504 554.205 48.9492 553.748 49.5469C553.297 50.1387 553.071 50.9971 553.071 52.1221V52.4297C553.071 53.5254 553.297 54.3691 553.748 54.9609C554.199 55.5527 554.844 55.8486 555.682 55.8486ZM563.495 45.1875V47.4902H565.271V48.7471H563.495V54.6445C563.495 55.0254 563.574 55.3125 563.732 55.5059C563.891 55.6934 564.16 55.7871 564.541 55.7871C564.729 55.7871 564.986 55.752 565.314 55.6816V57C564.887 57.1172 564.471 57.1758 564.066 57.1758C563.34 57.1758 562.792 56.9561 562.423 56.5166C562.054 56.0771 561.869 55.4531 561.869 54.6445V48.7471H560.138V47.4902H561.869V45.1875H563.495Z" fill="#1F2E35" fill-opacity="0.8"/>
<path d="M998.173 51.9902V57H996.485V44.2031H1001.21C1002.61 44.2031 1003.7 44.5605 1004.49 45.2754C1005.29 45.9902 1005.69 46.9365 1005.69 48.1143C1005.69 49.3564 1005.3 50.3145 1004.52 50.9883C1003.75 51.6562 1002.63 51.9902 1001.19 51.9902H998.173ZM998.173 50.6104H1001.21C1002.11 50.6104 1002.8 50.3994 1003.28 49.9775C1003.76 49.5498 1004 48.9346 1004 48.1318C1004 47.3701 1003.76 46.7607 1003.28 46.3037C1002.8 45.8467 1002.14 45.6094 1001.3 45.5918H998.173V50.6104ZM1013.35 57C1013.26 56.8125 1013.18 56.4785 1013.12 55.998C1012.37 56.7832 1011.46 57.1758 1010.42 57.1758C1009.48 57.1758 1008.71 56.9121 1008.1 56.3848C1007.51 55.8516 1007.21 55.1777 1007.21 54.3633C1007.21 53.373 1007.58 52.6055 1008.33 52.0605C1009.09 51.5098 1010.15 51.2344 1011.51 51.2344H1013.1V50.4873C1013.1 49.9189 1012.93 49.4678 1012.59 49.1338C1012.25 48.7939 1011.75 48.624 1011.08 48.624C1010.5 48.624 1010.02 48.7705 1009.62 49.0635C1009.23 49.3564 1009.04 49.7109 1009.04 50.127H1007.4C1007.4 49.6523 1007.57 49.1953 1007.9 48.7559C1008.24 48.3105 1008.7 47.959 1009.27 47.7012C1009.85 47.4434 1010.49 47.3145 1011.18 47.3145C1012.28 47.3145 1013.13 47.5898 1013.76 48.1406C1014.38 48.6855 1014.7 49.4385 1014.72 50.3994V54.7764C1014.72 55.6494 1014.83 56.3438 1015.06 56.8594V57H1013.35ZM1010.65 55.7607C1011.16 55.7607 1011.65 55.6289 1012.1 55.3652C1012.56 55.1016 1012.89 54.7588 1013.1 54.3369V52.3857H1011.82C1009.83 52.3857 1008.83 52.9688 1008.83 54.1348C1008.83 54.6445 1009 55.043 1009.34 55.3301C1009.68 55.6172 1010.12 55.7607 1010.65 55.7607ZM1021.87 48.9492C1021.62 48.9082 1021.36 48.8877 1021.07 48.8877C1020 48.8877 1019.28 49.3418 1018.9 50.25V57H1017.27V47.4902H1018.85L1018.88 48.5889C1019.41 47.7393 1020.17 47.3145 1021.15 47.3145C1021.46 47.3145 1021.7 47.3555 1021.87 47.4375V48.9492ZM1026.02 45.1875V47.4902H1027.79V48.7471H1026.02V54.6445C1026.02 55.0254 1026.1 55.3125 1026.25 55.5059C1026.41 55.6934 1026.68 55.7871 1027.06 55.7871C1027.25 55.7871 1027.51 55.752 1027.84 55.6816V57C1027.41 57.1172 1026.99 57.1758 1026.59 57.1758C1025.86 57.1758 1025.31 56.9561 1024.94 56.5166C1024.58 56.0771 1024.39 55.4531 1024.39 54.6445V48.7471H1022.66V47.4902H1024.39V45.1875H1026.02ZM1031.24 47.4902L1031.29 48.6855C1032.02 47.7715 1032.97 47.3145 1034.14 47.3145C1036.15 47.3145 1037.16 48.4482 1037.18 50.7158V57H1035.55V50.707C1035.55 50.0215 1035.39 49.5146 1035.08 49.1865C1034.77 48.8584 1034.3 48.6943 1033.65 48.6943C1033.12 48.6943 1032.66 48.835 1032.26 49.1162C1031.86 49.3975 1031.55 49.7666 1031.33 50.2236V57H1029.7V47.4902H1031.24ZM1043.58 57.1758C1042.29 57.1758 1041.24 56.7539 1040.43 55.9102C1039.62 55.0605 1039.22 53.9268 1039.22 52.5088V52.21C1039.22 51.2666 1039.4 50.4258 1039.75 49.6875C1040.12 48.9434 1040.62 48.3633 1041.27 47.9473C1041.92 47.5254 1042.62 47.3145 1043.38 47.3145C1044.61 47.3145 1045.57 47.7217 1046.26 48.5361C1046.94 49.3506 1047.29 50.5166 1047.29 52.0342V52.7109H1040.84C1040.87 53.6484 1041.14 54.4072 1041.66 54.9873C1042.19 55.5615 1042.86 55.8486 1043.67 55.8486C1044.24 55.8486 1044.73 55.7314 1045.12 55.4971C1045.52 55.2627 1045.87 54.9521 1046.17 54.5654L1047.16 55.3389C1046.37 56.5635 1045.17 57.1758 1043.58 57.1758ZM1043.38 48.6504C1042.72 48.6504 1042.17 48.8906 1041.72 49.3711C1041.28 49.8457 1041 50.5137 1040.9 51.375H1045.66V51.252C1045.61 50.4258 1045.39 49.7871 1044.99 49.3359C1044.59 48.8789 1044.05 48.6504 1043.38 48.6504ZM1053.77 48.9492C1053.53 48.9082 1053.26 48.8877 1052.97 48.8877C1051.91 48.8877 1051.18 49.3418 1050.8 50.25V57H1049.18V47.4902H1050.76L1050.78 48.5889C1051.32 47.7393 1052.07 47.3145 1053.05 47.3145C1053.37 47.3145 1053.61 47.3555 1053.77 47.4375V48.9492Z" fill="#1F2E35" fill-opacity="0.8"/>
<path d="M626.327 45.5918H622.214V57H620.535V45.5918H616.431V44.2031H626.327V45.5918ZM631.038 57.1758C629.749 57.1758 628.7 56.7539 627.892 55.9102C627.083 55.0605 626.679 53.9268 626.679 52.5088V52.21C626.679 51.2666 626.857 50.4258 627.215 49.6875C627.578 48.9434 628.082 48.3633 628.727 47.9473C629.377 47.5254 630.08 47.3145 630.836 47.3145C632.072 47.3145 633.033 47.7217 633.719 48.5361C634.404 49.3506 634.747 50.5166 634.747 52.0342V52.7109H628.305C628.328 53.6484 628.601 54.4072 629.122 54.9873C629.649 55.5615 630.317 55.8486 631.126 55.8486C631.7 55.8486 632.187 55.7314 632.585 55.4971C632.983 55.2627 633.332 54.9521 633.631 54.5654L634.624 55.3389C633.827 56.5635 632.632 57.1758 631.038 57.1758ZM630.836 48.6504C630.18 48.6504 629.629 48.8906 629.184 49.3711C628.738 49.8457 628.463 50.5137 628.357 51.375H633.121V51.252C633.074 50.4258 632.852 49.7871 632.453 49.3359C632.055 48.8789 631.516 48.6504 630.836 48.6504ZM640.451 55.8486C641.031 55.8486 641.538 55.6729 641.972 55.3213C642.405 54.9697 642.646 54.5303 642.692 54.0029H644.23C644.201 54.5479 644.014 55.0664 643.668 55.5586C643.322 56.0508 642.859 56.4434 642.279 56.7363C641.705 57.0293 641.096 57.1758 640.451 57.1758C639.156 57.1758 638.125 56.7451 637.357 55.8838C636.596 55.0166 636.215 53.833 636.215 52.333V52.0605C636.215 51.1348 636.385 50.3115 636.725 49.5908C637.064 48.8701 637.551 48.3105 638.184 47.9121C638.822 47.5137 639.575 47.3145 640.442 47.3145C641.509 47.3145 642.394 47.6338 643.097 48.2725C643.806 48.9111 644.184 49.7402 644.23 50.7598H642.692C642.646 50.1445 642.411 49.6406 641.989 49.248C641.573 48.8496 641.058 48.6504 640.442 48.6504C639.616 48.6504 638.975 48.9492 638.518 49.5469C638.066 50.1387 637.841 50.9971 637.841 52.1221V52.4297C637.841 53.5254 638.066 54.3691 638.518 54.9609C638.969 55.5527 639.613 55.8486 640.451 55.8486ZM647.685 48.6416C648.405 47.7568 649.343 47.3145 650.497 47.3145C652.507 47.3145 653.521 48.4482 653.538 50.7158V57H651.912V50.707C651.906 50.0215 651.748 49.5146 651.438 49.1865C651.133 48.8584 650.655 48.6943 650.005 48.6943C649.478 48.6943 649.015 48.835 648.616 49.1162C648.218 49.3975 647.907 49.7666 647.685 50.2236V57H646.059V43.5H647.685V48.6416ZM657.511 47.4902L657.563 48.6855C658.29 47.7715 659.239 47.3145 660.411 47.3145C662.421 47.3145 663.435 48.4482 663.452 50.7158V57H661.826V50.707C661.82 50.0215 661.662 49.5146 661.352 49.1865C661.047 48.8584 660.569 48.6943 659.919 48.6943C659.392 48.6943 658.929 48.835 658.53 49.1162C658.132 49.3975 657.821 49.7666 657.599 50.2236V57H655.973V47.4902H657.511ZM665.474 52.1572C665.474 51.2256 665.655 50.3877 666.019 49.6436C666.388 48.8994 666.897 48.3252 667.548 47.9209C668.204 47.5166 668.951 47.3145 669.789 47.3145C671.084 47.3145 672.13 47.7627 672.927 48.6592C673.729 49.5557 674.131 50.748 674.131 52.2363V52.3506C674.131 53.2764 673.952 54.1084 673.595 54.8467C673.243 55.5791 672.736 56.1504 672.074 56.5605C671.418 56.9707 670.662 57.1758 669.807 57.1758C668.518 57.1758 667.472 56.7275 666.669 55.8311C665.872 54.9346 665.474 53.748 665.474 52.2715V52.1572ZM667.108 52.3506C667.108 53.4053 667.352 54.252 667.838 54.8906C668.33 55.5293 668.986 55.8486 669.807 55.8486C670.633 55.8486 671.289 55.5264 671.775 54.8818C672.262 54.2314 672.505 53.3232 672.505 52.1572C672.505 51.1143 672.256 50.2705 671.758 49.626C671.266 48.9756 670.609 48.6504 669.789 48.6504C668.986 48.6504 668.339 48.9697 667.847 49.6084C667.354 50.2471 667.108 51.1611 667.108 52.3506ZM677.937 57H676.311V43.5H677.937V57ZM680.116 52.1572C680.116 51.2256 680.298 50.3877 680.661 49.6436C681.03 48.8994 681.54 48.3252 682.19 47.9209C682.847 47.5166 683.594 47.3145 684.432 47.3145C685.727 47.3145 686.772 47.7627 687.569 48.6592C688.372 49.5557 688.773 50.748 688.773 52.2363V52.3506C688.773 53.2764 688.595 54.1084 688.237 54.8467C687.886 55.5791 687.379 56.1504 686.717 56.5605C686.061 56.9707 685.305 57.1758 684.449 57.1758C683.16 57.1758 682.114 56.7275 681.312 55.8311C680.515 54.9346 680.116 53.748 680.116 52.2715V52.1572ZM681.751 52.3506C681.751 53.4053 681.994 54.252 682.48 54.8906C682.973 55.5293 683.629 55.8486 684.449 55.8486C685.275 55.8486 685.932 55.5264 686.418 54.8818C686.904 54.2314 687.147 53.3232 687.147 52.1572C687.147 51.1143 686.898 50.2705 686.4 49.626C685.908 48.9756 685.252 48.6504 684.432 48.6504C683.629 48.6504 682.981 48.9697 682.489 49.6084C681.997 50.2471 681.751 51.1611 681.751 52.3506ZM690.426 52.166C690.426 50.6836 690.769 49.5059 691.454 48.6328C692.14 47.7539 693.048 47.3145 694.179 47.3145C695.339 47.3145 696.244 47.7246 696.895 48.5449L696.974 47.4902H698.459V56.7715C698.459 58.002 698.093 58.9717 697.36 59.6807C696.634 60.3896 695.655 60.7441 694.425 60.7441C693.739 60.7441 693.068 60.5977 692.412 60.3047C691.756 60.0117 691.255 59.6104 690.909 59.1006L691.753 58.125C692.45 58.9863 693.303 59.417 694.311 59.417C695.102 59.417 695.717 59.1943 696.156 58.749C696.602 58.3037 696.824 57.6768 696.824 56.8682V56.0508C696.174 56.8008 695.286 57.1758 694.161 57.1758C693.048 57.1758 692.146 56.7275 691.454 55.8311C690.769 54.9346 690.426 53.7129 690.426 52.166ZM692.061 52.3506C692.061 53.4229 692.28 54.2666 692.72 54.8818C693.159 55.4912 693.774 55.7959 694.565 55.7959C695.591 55.7959 696.344 55.3301 696.824 54.3984V50.0566C696.326 49.1484 695.579 48.6943 694.583 48.6943C693.792 48.6943 693.174 49.002 692.729 49.6172C692.283 50.2324 692.061 51.1436 692.061 52.3506ZM704.031 54.6182L706.246 47.4902H707.986L704.163 58.4678C703.571 60.0498 702.631 60.8408 701.342 60.8408L701.034 60.8145L700.428 60.7002V59.3818L700.867 59.417C701.418 59.417 701.846 59.3057 702.15 59.083C702.461 58.8604 702.716 58.4531 702.915 57.8613L703.275 56.8945L699.883 47.4902H701.658L704.031 54.6182Z" fill="#1F2E35" fill-opacity="0.8"/>
<path d="M767.552 53.6602H762.19L760.986 57H759.246L764.133 44.2031H765.609L770.505 57H768.773L767.552 53.6602ZM762.7 52.2715H767.051L764.871 46.2861L762.7 52.2715ZM780.023 52.3506C780.023 53.8037 779.689 54.9727 779.021 55.8574C778.354 56.7363 777.457 57.1758 776.332 57.1758C775.131 57.1758 774.202 56.751 773.546 55.9014L773.467 57H771.973V43.5H773.599V48.5361C774.255 47.7217 775.16 47.3145 776.314 47.3145C777.469 47.3145 778.374 47.751 779.03 48.624C779.692 49.4971 780.023 50.6924 780.023 52.21V52.3506ZM778.397 52.166C778.397 51.0586 778.184 50.2031 777.756 49.5996C777.328 48.9961 776.713 48.6943 775.91 48.6943C774.838 48.6943 774.067 49.1924 773.599 50.1885V54.3018C774.097 55.2979 774.873 55.7959 775.928 55.7959C776.707 55.7959 777.313 55.4941 777.747 54.8906C778.181 54.2871 778.397 53.3789 778.397 52.166ZM781.649 52.1572C781.649 51.2256 781.831 50.3877 782.194 49.6436C782.563 48.8994 783.073 48.3252 783.724 47.9209C784.38 47.5166 785.127 47.3145 785.965 47.3145C787.26 47.3145 788.306 47.7627 789.103 48.6592C789.905 49.5557 790.307 50.748 790.307 52.2363V52.3506C790.307 53.2764 790.128 54.1084 789.771 54.8467C789.419 55.5791 788.912 56.1504 788.25 56.5605C787.594 56.9707 786.838 57.1758 785.982 57.1758C784.693 57.1758 783.647 56.7275 782.845 55.8311C782.048 54.9346 781.649 53.748 781.649 52.2715V52.1572ZM783.284 52.3506C783.284 53.4053 783.527 54.252 784.014 54.8906C784.506 55.5293 785.162 55.8486 785.982 55.8486C786.809 55.8486 787.465 55.5264 787.951 54.8818C788.438 54.2314 788.681 53.3232 788.681 52.1572C788.681 51.1143 788.432 50.2705 787.934 49.626C787.441 48.9756 786.785 48.6504 785.965 48.6504C785.162 48.6504 784.515 48.9697 784.022 49.6084C783.53 50.2471 783.284 51.1611 783.284 52.3506ZM798.217 56.0596C797.584 56.8037 796.655 57.1758 795.431 57.1758C794.417 57.1758 793.644 56.8828 793.11 56.2969C792.583 55.7051 792.316 54.832 792.311 53.6777V47.4902H793.937V53.6338C793.937 55.0752 794.522 55.7959 795.694 55.7959C796.937 55.7959 797.763 55.333 798.173 54.4072V47.4902H799.799V57H798.252L798.217 56.0596ZM804.483 45.1875V47.4902H806.259V48.7471H804.483V54.6445C804.483 55.0254 804.562 55.3125 804.721 55.5059C804.879 55.6934 805.148 55.7871 805.529 55.7871C805.717 55.7871 805.975 55.752 806.303 55.6816V57C805.875 57.1172 805.459 57.1758 805.055 57.1758C804.328 57.1758 803.78 56.9561 803.411 56.5166C803.042 56.0771 802.857 55.4531 802.857 54.6445V48.7471H801.126V47.4902H802.857V45.1875H804.483Z" fill="#1F2E35" fill-opacity="0.8"/>
<path d="M815 47.7143L821.5 55L828 47.7143L826.471 46L821.5 51.5714L816.529 46L815 47.7143Z" fill="#1F2E35" fill-opacity="0.8"/>
<path fill-rule="evenodd" clip-rule="evenodd" d="M1215 44C1215 42.8954 1215.9 42 1217 42H1233C1234.1 42 1235 42.8954 1235 44V56C1235 57.1046 1234.1 58 1233 58H1217C1215.9 58 1215 57.1046 1215 56V44ZM1233 45.8685V56H1217V45.8685L1225 51.2018L1233 45.8685ZM1232.2 44H1217.8L1225 48.7981L1232.2 44Z" fill="#1F2E35" fill-opacity="0.8"/>
<path fill-rule="evenodd" clip-rule="evenodd" d="M1173 50.5858H1171L1180.29 41.2929C1180.68 40.9024 1181.32 40.9024 1181.71 41.2929L1191 50.5858H1189V58.5858C1189 59.1381 1188.55 59.5858 1188 59.5858H1174C1173.45 59.5858 1173 59.1381 1173 58.5858V50.5858ZM1175 57.5858H1179V52.5858H1183V57.5858H1187V49.4142L1181 43.4142L1175 49.4142V57.5858Z" fill="#1F2E35" fill-opacity="0.8"/>
<path fill-rule="evenodd" clip-rule="evenodd" d="M1265.59 47.17L1260.41 42L1259 43.41L1264.17 48.58L1265.59 47.17ZM1269.5 42L1271.54 44.04L1259 56.59L1260.41 58L1272.96 45.46L1275 47.5V42H1269.5ZM1268.42 52.82L1269.83 51.41L1272.96 54.54L1275 52.5V58H1269.5L1271.55 55.95L1268.42 52.82Z" fill="#1F2E35" fill-opacity="0.8"/>
<path d="M888.898 52.9395C888.74 54.293 888.239 55.3389 887.396 56.0771C886.558 56.8096 885.441 57.1758 884.047 57.1758C882.535 57.1758 881.322 56.6338 880.408 55.5498C879.5 54.4658 879.046 53.0156 879.046 51.1992V49.9688C879.046 48.7793 879.257 47.7334 879.679 46.8311C880.106 45.9287 880.71 45.2373 881.489 44.7568C882.269 44.2705 883.171 44.0273 884.196 44.0273C885.556 44.0273 886.646 44.4082 887.466 45.1699C888.286 45.9258 888.764 46.9746 888.898 48.3164H887.202C887.056 47.2969 886.736 46.5586 886.244 46.1016C885.758 45.6445 885.075 45.416 884.196 45.416C883.118 45.416 882.271 45.8145 881.656 46.6113C881.047 47.4082 880.742 48.542 880.742 50.0127V51.252C880.742 52.6406 881.032 53.7451 881.612 54.5654C882.192 55.3857 883.004 55.7959 884.047 55.7959C884.984 55.7959 885.702 55.585 886.2 55.1631C886.704 54.7354 887.038 53.9941 887.202 52.9395H888.898ZM892.722 57H891.096V43.5H892.722V57ZM897.099 57H895.473V47.4902H897.099V57ZM895.341 44.9678C895.341 44.7041 895.42 44.4814 895.578 44.2998C895.742 44.1182 895.982 44.0273 896.299 44.0273C896.615 44.0273 896.855 44.1182 897.02 44.2998C897.184 44.4814 897.266 44.7041 897.266 44.9678C897.266 45.2314 897.184 45.4512 897.02 45.627C896.855 45.8027 896.615 45.8906 896.299 45.8906C895.982 45.8906 895.742 45.8027 895.578 45.627C895.42 45.4512 895.341 45.2314 895.341 44.9678ZM903.655 57.1758C902.366 57.1758 901.317 56.7539 900.509 55.9102C899.7 55.0605 899.296 53.9268 899.296 52.5088V52.21C899.296 51.2666 899.475 50.4258 899.832 49.6875C900.195 48.9434 900.699 48.3633 901.344 47.9473C901.994 47.5254 902.697 47.3145 903.453 47.3145C904.689 47.3145 905.65 47.7217 906.336 48.5361C907.021 49.3506 907.364 50.5166 907.364 52.0342V52.7109H900.922C900.945 53.6484 901.218 54.4072 901.739 54.9873C902.267 55.5615 902.935 55.8486 903.743 55.8486C904.317 55.8486 904.804 55.7314 905.202 55.4971C905.601 55.2627 905.949 54.9521 906.248 54.5654L907.241 55.3389C906.444 56.5635 905.249 57.1758 903.655 57.1758ZM903.453 48.6504C902.797 48.6504 902.246 48.8906 901.801 49.3711C901.355 49.8457 901.08 50.5137 900.975 51.375H905.738V51.252C905.691 50.4258 905.469 49.7871 905.07 49.3359C904.672 48.8789 904.133 48.6504 903.453 48.6504ZM910.792 47.4902L910.845 48.6855C911.571 47.7715 912.521 47.3145 913.692 47.3145C915.702 47.3145 916.716 48.4482 916.733 50.7158V57H915.107V50.707C915.102 50.0215 914.943 49.5146 914.633 49.1865C914.328 48.8584 913.851 48.6943 913.2 48.6943C912.673 48.6943 912.21 48.835 911.812 49.1162C911.413 49.3975 911.103 49.7666 910.88 50.2236V57H909.254V47.4902H910.792ZM921.392 45.1875V47.4902H923.167V48.7471H921.392V54.6445C921.392 55.0254 921.471 55.3125 921.629 55.5059C921.787 55.6934 922.057 55.7871 922.438 55.7871C922.625 55.7871 922.883 55.752 923.211 55.6816V57C922.783 57.1172 922.367 57.1758 921.963 57.1758C921.236 57.1758 920.688 56.9561 920.319 56.5166C919.95 56.0771 919.766 55.4531 919.766 54.6445V48.7471H918.034V47.4902H919.766V45.1875H921.392Z" fill="#1F2E35" fill-opacity="0.8"/>
<path d="M932 47.7143L938.5 55L945 47.7143L943.471 46L938.5 51.5714L933.529 46L932 47.7143Z" fill="#1F2E35" fill-opacity="0.8"/>
<path d="M160.578 66V31.875H171.57C174.586 31.875 177.297 32.5625 179.703 33.9375C182.109 35.2969 183.984 37.2266 185.328 39.7266C186.688 42.2109 187.375 45 187.391 48.0938V49.6641C187.391 52.7891 186.727 55.5938 185.398 58.0781C184.086 60.5469 182.227 62.4844 179.82 63.8906C177.43 65.2812 174.758 65.9844 171.805 66H160.578ZM168.805 38.2266V59.6719H171.664C174.023 59.6719 175.836 58.8359 177.102 57.1641C178.367 55.4766 179 52.9766 179 49.6641V48.1875C179 44.8906 178.367 42.4062 177.102 40.7344C175.836 39.0625 173.992 38.2266 171.57 38.2266H168.805Z" fill="#85171A"/>
<path d="M206.811 56.9297C206.811 55.7266 206.381 54.7891 205.522 54.1172C204.678 53.4453 203.186 52.75 201.045 52.0312C198.905 51.3125 197.155 50.6172 195.795 49.9453C191.373 47.7734 189.163 44.7891 189.163 40.9922C189.163 39.1016 189.709 37.4375 190.803 36C191.913 34.5469 193.475 33.4219 195.491 32.625C197.506 31.8125 199.772 31.4062 202.288 31.4062C204.741 31.4062 206.936 31.8438 208.873 32.7188C210.827 33.5938 212.342 34.8438 213.42 36.4688C214.498 38.0781 215.038 39.9219 215.038 42H206.834C206.834 40.6094 206.405 39.5312 205.545 38.7656C204.702 38 203.553 37.6172 202.1 37.6172C200.631 37.6172 199.467 37.9453 198.608 38.6016C197.764 39.2422 197.342 40.0625 197.342 41.0625C197.342 41.9375 197.811 42.7344 198.748 43.4531C199.686 44.1562 201.334 44.8906 203.694 45.6562C206.053 46.4062 207.991 47.2188 209.506 48.0938C213.194 50.2188 215.038 53.1484 215.038 56.8828C215.038 59.8672 213.913 62.2109 211.663 63.9141C209.413 65.6172 206.327 66.4688 202.405 66.4688C199.639 66.4688 197.131 65.9766 194.881 64.9922C192.647 63.9922 190.959 62.6328 189.819 60.9141C188.694 59.1797 188.131 57.1875 188.131 54.9375H196.381C196.381 56.7656 196.85 58.1172 197.788 58.9922C198.741 59.8516 200.28 60.2812 202.405 60.2812C203.764 60.2812 204.834 59.9922 205.616 59.4141C206.413 58.8203 206.811 57.9922 206.811 56.9297Z" fill="#DC2025"/>
<path d="M225.622 66H217.419V31.875H225.622V66Z" fill="#FEBA08"/>
<path d="M229.723 40V32.8906H231.822C232.451 32.8906 233.007 33.0306 233.492 33.3105C233.98 33.5905 234.358 33.9876 234.625 34.502C234.892 35.0163 235.025 35.6055 235.025 36.2695V36.626C235.025 37.2998 234.89 37.8923 234.62 38.4033C234.353 38.9144 233.971 39.3083 233.473 39.585C232.978 39.8617 232.41 40 231.769 40H229.723ZM230.958 33.8867V39.0137H231.764C232.411 39.0137 232.908 38.8118 233.253 38.4082C233.601 38.0013 233.779 37.4186 233.785 36.6602V36.2646C233.785 35.4932 233.618 34.904 233.282 34.4971C232.947 34.0902 232.46 33.8867 231.822 33.8867H230.958ZM242.482 38.2422L243.576 32.8906H244.801L243.161 40H241.979L240.627 34.8096L239.245 40H238.058L236.418 32.8906H237.643L238.747 38.2324L240.104 32.8906H241.139L242.482 38.2422ZM247.658 40H246.428V32.8906H247.658V40ZM249.827 40V32.8906H251.927C252.555 32.8906 253.111 33.0306 253.596 33.3105C254.085 33.5905 254.462 33.9876 254.729 34.502C254.996 35.0163 255.13 35.6055 255.13 36.2695V36.626C255.13 37.2998 254.995 37.8923 254.724 38.4033C254.457 38.9144 254.075 39.3083 253.577 39.585C253.082 39.8617 252.514 40 251.873 40H249.827ZM251.062 33.8867V39.0137H251.868C252.516 39.0137 253.012 38.8118 253.357 38.4082C253.706 38.0013 253.883 37.4186 253.889 36.6602V36.2646C253.889 35.4932 253.722 34.904 253.387 34.4971C253.051 34.0902 252.565 33.8867 251.927 33.8867H251.062ZM260.882 38.3447H258.128L257.552 40H256.268L258.954 32.8906H260.062L262.752 40H261.463L260.882 38.3447ZM258.475 37.3486H260.536L259.505 34.3994L258.475 37.3486ZM267.929 38.1689C267.929 37.8564 267.818 37.6156 267.597 37.4463C267.379 37.277 266.983 37.1061 266.41 36.9336C265.837 36.7611 265.382 36.569 265.043 36.3574C264.395 35.9505 264.071 35.4199 264.071 34.7656C264.071 34.1927 264.304 33.7207 264.77 33.3496C265.238 32.9785 265.845 32.793 266.591 32.793C267.086 32.793 267.527 32.8841 267.914 33.0664C268.301 33.2487 268.606 33.5091 268.827 33.8477C269.049 34.1829 269.159 34.5557 269.159 34.9658H267.929C267.929 34.5947 267.812 34.305 267.577 34.0967C267.346 33.8851 267.014 33.7793 266.581 33.7793C266.177 33.7793 265.863 33.8656 265.639 34.0381C265.417 34.2106 265.307 34.4515 265.307 34.7607C265.307 35.0212 265.427 35.2393 265.668 35.415C265.909 35.5876 266.306 35.7568 266.859 35.9229C267.413 36.0856 267.857 36.2728 268.192 36.4844C268.528 36.6927 268.773 36.9336 268.93 37.207C269.086 37.4772 269.164 37.7946 269.164 38.1592C269.164 38.7516 268.936 39.2236 268.48 39.5752C268.028 39.9235 267.413 40.0977 266.635 40.0977C266.12 40.0977 265.647 40.0033 265.214 39.8145C264.784 39.6224 264.449 39.3587 264.208 39.0234C263.97 38.6882 263.852 38.2975 263.852 37.8516H265.087C265.087 38.2552 265.22 38.5677 265.487 38.7891C265.754 39.0104 266.137 39.1211 266.635 39.1211C267.064 39.1211 267.387 39.0348 267.602 38.8623C267.82 38.6865 267.929 38.4554 267.929 38.1689ZM274.878 38.3447H272.124L271.547 40H270.263L272.949 32.8906H274.057L276.748 40H275.459L274.878 38.3447ZM272.47 37.3486H274.531L273.501 34.3994L272.47 37.3486Z" fill="black" fill-opacity="0.6"/>
<path d="M233.438 50.1689C233.438 49.8564 233.328 49.6156 233.106 49.4463C232.888 49.277 232.493 49.1061 231.92 48.9336C231.347 48.7611 230.891 48.569 230.553 48.3574C229.905 47.9505 229.581 47.4199 229.581 46.7656C229.581 46.1927 229.814 45.7207 230.279 45.3496C230.748 44.9785 231.355 44.793 232.101 44.793C232.595 44.793 233.036 44.8841 233.424 45.0664C233.811 45.2487 234.116 45.5091 234.337 45.8477C234.558 46.1829 234.669 46.5557 234.669 46.9658H233.438C233.438 46.5947 233.321 46.305 233.087 46.0967C232.856 45.8851 232.524 45.7793 232.091 45.7793C231.687 45.7793 231.373 45.8656 231.148 46.0381C230.927 46.2106 230.816 46.4515 230.816 46.7607C230.816 47.0212 230.937 47.2393 231.178 47.415C231.419 47.5876 231.816 47.7568 232.369 47.9229C232.923 48.0856 233.367 48.2728 233.702 48.4844C234.037 48.6927 234.283 48.9336 234.439 49.207C234.596 49.4772 234.674 49.7946 234.674 50.1592C234.674 50.7516 234.446 51.2236 233.99 51.5752C233.538 51.9235 232.923 52.0977 232.145 52.0977C231.63 52.0977 231.157 52.0033 230.724 51.8145C230.294 51.6224 229.959 51.3587 229.718 51.0234C229.48 50.6882 229.361 50.2975 229.361 49.8516H230.597C230.597 50.2552 230.73 50.5677 230.997 50.7891C231.264 51.0104 231.646 51.1211 232.145 51.1211C232.574 51.1211 232.896 51.0348 233.111 50.8623C233.329 50.6865 233.438 50.4554 233.438 50.1689ZM239.887 50.3447H237.133L236.557 52H235.273L237.959 44.8906H239.067L241.757 52H240.468L239.887 50.3447ZM237.48 49.3486H239.541L238.51 46.3994L237.48 49.3486ZM244.32 44.8906L246.37 50.3398L248.416 44.8906H250.013V52H248.782V49.6562L248.904 46.5215L246.805 52H245.921L243.826 46.5264L243.948 49.6562V52H242.718V44.8906H244.32ZM255.344 50.1689C255.344 49.8564 255.233 49.6156 255.012 49.4463C254.793 49.277 254.398 49.1061 253.825 48.9336C253.252 48.7611 252.796 48.569 252.458 48.3574C251.81 47.9505 251.486 47.4199 251.486 46.7656C251.486 46.1927 251.719 45.7207 252.184 45.3496C252.653 44.9785 253.26 44.793 254.006 44.793C254.5 44.793 254.942 44.8841 255.329 45.0664C255.716 45.2487 256.021 45.5091 256.242 45.8477C256.463 46.1829 256.574 46.5557 256.574 46.9658H255.344C255.344 46.5947 255.226 46.305 254.992 46.0967C254.761 45.8851 254.429 45.7793 253.996 45.7793C253.592 45.7793 253.278 45.8656 253.054 46.0381C252.832 46.2106 252.721 46.4515 252.721 46.7607C252.721 47.0212 252.842 47.2393 253.083 47.415C253.324 47.5876 253.721 47.7568 254.274 47.9229C254.828 48.0856 255.272 48.2728 255.607 48.4844C255.943 48.6927 256.188 48.9336 256.345 49.207C256.501 49.4772 256.579 49.7946 256.579 50.1592C256.579 50.7516 256.351 51.2236 255.895 51.5752C255.443 51.9235 254.828 52.0977 254.05 52.0977C253.535 52.0977 253.062 52.0033 252.629 51.8145C252.199 51.6224 251.864 51.3587 251.623 51.0234C251.385 50.6882 251.266 50.2975 251.266 49.8516H252.502C252.502 50.2552 252.635 50.5677 252.902 50.7891C253.169 51.0104 253.552 51.1211 254.05 51.1211C254.479 51.1211 254.802 51.0348 255.016 50.8623C255.235 50.6865 255.344 50.4554 255.344 50.1689ZM261.792 50.3447H259.038L258.462 52H257.178L259.864 44.8906H260.972L263.663 52H262.373L261.792 50.3447ZM259.385 49.3486H261.446L260.415 46.3994L259.385 49.3486ZM267.235 49.2607H265.858V52H264.623V44.8906H267.123C267.943 44.8906 268.576 45.0745 269.022 45.4424C269.468 45.8102 269.691 46.3424 269.691 47.0391C269.691 47.5143 269.576 47.9131 269.345 48.2354C269.117 48.5544 268.798 48.8001 268.388 48.9727L269.984 51.9365V52H268.661L267.235 49.2607ZM265.858 48.2695H267.128C267.545 48.2695 267.87 48.1654 268.104 47.957C268.339 47.7454 268.456 47.4574 268.456 47.0928C268.456 46.7119 268.347 46.4173 268.129 46.209C267.914 46.0007 267.592 45.8932 267.162 45.8867H265.858V48.2695ZM274.993 50.3447H272.239L271.663 52H270.379L273.064 44.8906H274.172L276.863 52H275.574L274.993 50.3447ZM272.586 49.3486H274.646L273.616 46.3994L272.586 49.3486Z" fill="#263238" fill-opacity="0.8"/>
<path d="M231.026 65H229.796V57.8906H231.026V65ZM237.685 65H236.449L233.28 59.9561V65H232.045V57.8906H233.28L236.459 62.9541V57.8906H237.685V65ZM238.645 65V57.8906H240.744C241.372 57.8906 241.929 58.0306 242.414 58.3105C242.902 58.5905 243.28 58.9876 243.547 59.502C243.814 60.0163 243.947 60.6055 243.947 61.2695V61.626C243.947 62.2998 243.812 62.8923 243.542 63.4033C243.275 63.9144 242.893 64.3083 242.395 64.585C241.9 64.8617 241.332 65 240.69 65H238.645ZM239.88 58.8867V64.0137H240.686C241.333 64.0137 241.83 63.8118 242.175 63.4082C242.523 63.0013 242.701 62.4186 242.707 61.6602V61.2646C242.707 60.4932 242.539 59.904 242.204 59.4971C241.869 59.0902 241.382 58.8867 240.744 58.8867H239.88ZM250.352 61.6309C250.352 62.3275 250.231 62.9395 249.99 63.4668C249.749 63.9909 249.404 64.3945 248.955 64.6777C248.509 64.9577 247.995 65.0977 247.412 65.0977C246.836 65.0977 246.322 64.9577 245.869 64.6777C245.42 64.3945 245.072 63.9925 244.824 63.4717C244.58 62.9508 244.456 62.3503 244.453 61.6699V61.2695C244.453 60.5762 244.575 59.9642 244.819 59.4336C245.067 58.903 245.413 58.4977 245.859 58.2178C246.309 57.9346 246.823 57.793 247.402 57.793C247.982 57.793 248.494 57.9329 248.94 58.2129C249.39 58.4896 249.736 58.89 249.98 59.4141C250.225 59.9349 250.348 60.542 250.352 61.2354V61.6309ZM249.116 61.2598C249.116 60.472 248.966 59.8682 248.667 59.4482C248.371 59.0283 247.949 58.8184 247.402 58.8184C246.868 58.8184 246.45 59.0283 246.147 59.4482C245.848 59.8649 245.695 60.4557 245.688 61.2207V61.6309C245.688 62.4121 245.84 63.016 246.143 63.4424C246.449 63.8688 246.872 64.082 247.412 64.082C247.959 64.082 248.379 63.8737 248.672 63.457C248.968 63.0404 249.116 62.4316 249.116 61.6309V61.2598ZM256.722 65H255.486L252.317 59.9561V65H251.082V57.8906H252.317L255.496 62.9541V57.8906H256.722V65ZM261.837 61.8262H258.917V64.0137H262.33V65H257.682V57.8906H262.296V58.8867H258.917V60.8496H261.837V61.8262ZM266.552 63.1689C266.552 62.8564 266.441 62.6156 266.22 62.4463C266.002 62.277 265.606 62.1061 265.033 61.9336C264.46 61.7611 264.005 61.569 263.666 61.3574C263.018 60.9505 262.694 60.4199 262.694 59.7656C262.694 59.1927 262.927 58.7207 263.393 58.3496C263.861 57.9785 264.468 57.793 265.214 57.793C265.709 57.793 266.15 57.8841 266.537 58.0664C266.924 58.2487 267.229 58.5091 267.45 58.8477C267.672 59.1829 267.782 59.5557 267.782 59.9658H266.552C266.552 59.5947 266.435 59.305 266.2 59.0967C265.969 58.8851 265.637 58.7793 265.204 58.7793C264.8 58.7793 264.486 58.8656 264.262 59.0381C264.04 59.2106 263.93 59.4515 263.93 59.7607C263.93 60.0212 264.05 60.2393 264.291 60.415C264.532 60.5876 264.929 60.7568 265.482 60.9229C266.036 61.0856 266.48 61.2728 266.815 61.4844C267.151 61.6927 267.396 61.9336 267.553 62.207C267.709 62.4772 267.787 62.7946 267.787 63.1592C267.787 63.7516 267.559 64.2236 267.104 64.5752C266.651 64.9235 266.036 65.0977 265.258 65.0977C264.743 65.0977 264.27 65.0033 263.837 64.8145C263.407 64.6224 263.072 64.3587 262.831 64.0234C262.593 63.6882 262.475 63.2975 262.475 62.8516H263.71C263.71 63.2552 263.843 63.5677 264.11 63.7891C264.377 64.0104 264.76 64.1211 265.258 64.1211C265.688 64.1211 266.01 64.0348 266.225 63.8623C266.443 63.6865 266.552 63.4554 266.552 63.1689ZM269.675 65H268.444V57.8906H269.675V65ZM274.761 63.3447H272.007L271.431 65H270.146L272.832 57.8906H273.94L276.631 65H275.342L274.761 63.3447ZM272.354 62.3486H274.414L273.384 59.3994L272.354 62.3486Z" fill="#263238"/>
</g>
<defs>
<filter id="filter0_d_1_5" x="-4" y="-3" width="1448" height="108" filterUnits="userSpaceOnUse" color-interpolation-filters="sRGB">
<feFlood flood-opacity="0" result="BackgroundImageFix"/>
<feColorMatrix in="SourceAlpha" type="matrix" values="0 0 0 0 0 0 0 0 0 0 0 0 0 0 0 0 0 0 127 0" result="hardAlpha"/>
<feOffset dy="1"/>
<feGaussianBlur stdDeviation="2"/>
<feColorMatrix type="matrix" values="0 0 0 0 0 0 0 0 0 0 0 0 0 0 0 0 0 0 0.25 0"/>
<feBlend mode="normal" in2="BackgroundImageFix" result="effect1_dropShadow_1_5"/>
<feBlend mode="normal" in="SourceGraphic" in2="effect1_dropShadow_1_5" result="shape"/>
</filter>
</defs>
</svg>
